# 3ds Max Wavefront OBJ Exporter v0.99 - (c)2007 guruware
# File Created: 01.01.2024 21:11:16

mtllib TetraGizmo.mtl

#
# object GeoSphere001
#

v  2.3523 100.0000 -3.3750
v  102.3523 0.0000 -3.3750
v  2.3523 0.0000 -103.3750
v  -97.6477 0.0000 -3.3750
v  2.3523 0.0000 96.6250
v  2.3523 -100.0000 -3.3750
# 6 vertices

vn 0.0000 1.0000 -0.0000
vn 1.0000 0.0000 -0.0000
vn 0.0000 0.0000 -1.0000
vn -1.0000 0.0000 -0.0000
vn 0.0000 0.0000 1.0000
vn 0.0000 -1.0000 -0.0000
# 6 vertex normals

vt 0.6250 1.0000 100.0000
vt 0.5000 0.5000 100.0000
vt 0.7500 0.5000 100.0000
vt 0.8750 1.0000 100.0000
vt 1.0000 0.5000 100.0000
vt 0.1250 1.0000 100.0000
vt 0.0000 0.5000 100.0000
vt 0.2500 0.5000 100.0000
vt 0.3750 1.0000 100.0000
vt 0.6250 0.0000 100.0000
vt 0.8750 0.0000 100.0000
vt 0.1250 0.0000 100.0000
vt 0.3750 0.0000 100.0000
# 13 texture coords

o GeoSphere001
g GeoSphere001
usemtl wire_229166215
s off
f 1/1/1 2/2/2 3/3/3 
f 1/4/1 3/3/3 4/5/4 
f 1/6/1 4/7/4 5/8/5 
f 1/9/1 5/8/5 2/2/2 
f 6/10/6 3/3/3 2/2/2 
f 6/11/6 4/5/4 3/3/3 
f 6/12/6 5/8/5 4/7/4 
f 6/13/6 2/2/2 5/8/5 
# 0 polygons - 8 triangles

